# Blender 3.6.5
# www.blender.org
mtllib Snowflake.mtl
o Cube
v 0.166277 0.000000 0.096000
v 0.166277 0.000000 -0.096000
v 0.000000 0.000000 -0.192000
v -0.166277 0.000000 -0.096000
v -0.166277 0.000000 0.096000
v 0.000000 0.000000 0.192000
v 0.166277 0.000000 -0.032000
v 0.166277 0.000000 0.032000
v 0.055426 0.000000 -0.160000
v 0.110851 0.000000 -0.128000
v -0.110851 0.000000 -0.128000
v -0.055426 0.000000 -0.160000
v -0.166277 0.000000 0.032000
v -0.166277 0.000000 -0.032000
v -0.055426 0.000000 0.160000
v -0.110851 0.000000 0.128000
v 0.110851 0.000000 0.128000
v 0.055426 0.000000 0.160000
v 0.337750 0.000000 0.195000
v 0.337750 0.000000 -0.195000
v 0.000000 0.000000 -0.390000
v -0.337750 0.000000 -0.195000
v -0.337750 0.000000 0.195000
v -0.000000 0.000000 0.390000
v 0.337750 0.000000 -0.065000
v 0.337750 0.000000 0.065000
v 0.112583 0.000000 -0.325000
v 0.225167 0.000000 -0.260000
v -0.225167 0.000000 -0.260000
v -0.112583 0.000000 -0.325000
v -0.337750 0.000000 0.065000
v -0.337750 0.000000 -0.065000
v -0.112583 0.000000 0.325000
v -0.225167 0.000000 0.260000
v 0.225167 0.000000 0.260000
v 0.112583 0.000000 0.325000
v -0.597558 0.000000 -0.345000
v -0.484974 0.000000 -0.410000
v -0.597558 0.000000 -0.215000
v 0.597558 0.000000 0.345000
v 0.597558 0.000000 0.215000
v 0.484974 0.000000 0.410000
v -0.597558 0.000000 0.345000
v -0.597558 0.000000 0.215000
v -0.484974 0.000000 0.410000
v 0.597558 0.000000 -0.345000
v 0.597558 0.000000 -0.215000
v 0.484974 0.000000 -0.410000
v 0.000000 0.000000 -0.690000
v 0.112583 0.000000 -0.625000
v -0.112583 0.000000 -0.625000
v -0.000000 0.000000 0.690000
v -0.112583 0.000000 0.625000
v 0.112583 0.000000 0.625000
vn -0.0000 1.0000 -0.0000
vt 0.000000 0.000000
s 0
usemtl Material
f 3/1/1 9/1/1 27/1/1 21/1/1
f 1/1/1 17/1/1 35/1/1 19/1/1
f 8/1/1 1/1/1 19/1/1 26/1/1
f 9/1/1 10/1/1 28/1/1 27/1/1
f 17/1/1 18/1/1 36/1/1 35/1/1
f 10/1/1 2/1/1 20/1/1 28/1/1
f 4/1/1 11/1/1 29/1/1 22/1/1
f 12/1/1 3/1/1 21/1/1 30/1/1
f 11/1/1 12/1/1 30/1/1 29/1/1
f 14/1/1 4/1/1 22/1/1 32/1/1
f 5/1/1 13/1/1 31/1/1 23/1/1
f 16/1/1 5/1/1 23/1/1 34/1/1
f 13/1/1 14/1/1 32/1/1 31/1/1
f 2/1/1 7/1/1 25/1/1 20/1/1
f 18/1/1 6/1/1 24/1/1 36/1/1
f 6/1/1 15/1/1 33/1/1 24/1/1
f 7/1/1 8/1/1 26/1/1 25/1/1
f 15/1/1 16/1/1 34/1/1 33/1/1
f 22/1/1 29/1/1 38/1/1 37/1/1
f 32/1/1 22/1/1 37/1/1 39/1/1
f 19/1/1 35/1/1 42/1/1 40/1/1
f 26/1/1 19/1/1 40/1/1 41/1/1
f 23/1/1 31/1/1 44/1/1 43/1/1
f 34/1/1 23/1/1 43/1/1 45/1/1
f 20/1/1 25/1/1 47/1/1 46/1/1
f 28/1/1 20/1/1 46/1/1 48/1/1
f 21/1/1 27/1/1 50/1/1 49/1/1
f 30/1/1 21/1/1 49/1/1 51/1/1
f 24/1/1 33/1/1 53/1/1 52/1/1
f 36/1/1 24/1/1 52/1/1 54/1/1
