# Blender 3.6.5
# www.blender.org
mtllib TinyMite.mtl
o Cylinder
v 1.255038 0.433711 -1.471688
v 2.962889 -1.162888 -3.554062
v 1.347793 0.378092 -1.362012
v 3.048277 -1.037246 -3.528588
v 0.192379 -0.506702 -0.205120
v 1.215034 0.471115 -1.345041
v 0.305861 -0.494570 -0.101678
v 1.291915 0.341826 -1.378201
v 0.002398 -0.794068 0.291702
v 0.000000 -0.497083 -0.128298
v 0.002398 -0.200098 0.291702
v 0.299383 -0.497083 -0.128298
v 1.162017 0.341826 1.664544
v 0.184200 -0.494570 0.381702
v 1.149885 0.471115 1.581701
v 0.313489 -0.506702 0.298859
v 2.742932 -1.127877 3.910282
v 1.173538 0.468722 1.721667
v 2.872878 -1.072257 3.849074
v 1.220244 0.343081 1.645782
v -1.255038 0.433711 -1.471688
v -2.962889 -1.162888 -3.554062
v -1.347793 0.378092 -1.362012
v -3.048277 -1.037246 -3.528588
v -0.192379 -0.506702 -0.205120
v -1.215034 0.471115 -1.345041
v -0.305861 -0.494570 -0.101678
v -1.291915 0.341826 -1.378201
v -0.002398 -0.794068 0.291702
v -0.002398 -0.200098 0.291702
v -0.299383 -0.497083 -0.128298
v -1.162017 0.341826 1.664544
v -0.184200 -0.494570 0.381702
v -1.149885 0.471115 1.581701
v -0.313489 -0.506702 0.298859
v -2.742932 -1.127877 3.910282
v -1.173538 0.468722 1.721667
v -2.872878 -1.072257 3.849074
v -1.220244 0.343081 1.645782
vn 0.5781 0.8123 -0.0769
vn 0.5037 -0.4870 0.7135
vn 0.6892 0.2340 0.6857
vn 0.3647 -0.8826 -0.2966
vn -0.6037 -0.7895 0.1102
vn -0.4701 0.4708 -0.7465
vn -0.0000 -0.8165 -0.5774
vn -0.0000 0.8165 -0.5774
vn -0.8407 0.2340 0.4883
vn 0.0753 -0.8123 -0.5783
vn 0.1921 -0.8826 0.4290
vn -0.2340 0.8407 -0.4883
vn -0.0498 0.7895 0.6117
vn -0.8428 -0.4708 0.2608
vn 0.8196 0.4870 -0.3019
vn -0.6429 -0.1921 -0.7415
vn -0.4111 0.8407 0.3524
vn -1.0000 -0.0000 0.0057
vn 0.8826 -0.1921 -0.4290
vn 0.8165 -0.0000 0.5774
vn -0.5781 0.8123 -0.0769
vn -0.5037 -0.4870 0.7135
vn -0.6892 0.2340 0.6857
vn -0.3647 -0.8826 -0.2966
vn 0.6037 -0.7895 0.1102
vn 0.4701 0.4708 -0.7465
vn 0.8407 0.2340 0.4883
vn -0.0753 -0.8123 -0.5783
vn -0.1921 -0.8826 0.4290
vn 0.2340 0.8407 -0.4883
vn 0.0498 0.7895 0.6117
vn 0.8428 -0.4708 0.2608
vn -0.8196 0.4870 -0.3019
vn 0.6429 -0.1921 -0.7415
vn 0.4111 0.8407 0.3524
vn 1.0000 -0.0000 0.0057
vn -0.8826 -0.1921 -0.4290
vn -0.8165 -0.0000 0.5774
vt 0.875000 0.750000
vt 0.625000 0.500000
vt 0.375000 0.250000
vt 0.375000 0.750000
vt 0.625000 0.000000
vt 0.125000 0.500000
vt 0.375000 1.000000
vt 0.625000 0.750000
vt 0.625000 0.250000
vt 0.375000 0.500000
vt 0.375000 0.000000
vt 0.625000 1.000000
vt 0.875000 0.500000
vt 0.125000 0.750000
s 0
usemtl Material.001
f 4/1/1 1/2/1 3/3/1
f 2/4/2 4/5/2 3/6/2
f 8/7/3 6/8/3 7/9/3
f 7/9/4 5/10/4 8/11/4
f 1/2/5 2/4/5 3/3/5
f 1/2/6 4/12/6 2/4/6
f 12/10/7 9/11/7 10/9/7
f 10/13/8 11/8/8 12/10/8
f 14/9/9 13/7/9 15/8/9
f 17/14/10 20/10/10 19/8/10
f 16/10/11 13/11/11 14/9/11
f 14/13/12 15/8/12 16/10/12
f 18/9/13 17/7/13 19/8/13
f 20/10/14 17/11/14 18/9/14
f 18/13/15 19/8/15 20/10/15
f 6/8/16 8/14/16 5/10/16
f 7/13/17 6/8/17 5/10/17
f 10/9/18 9/7/18 11/8/18
f 13/14/19 16/10/19 15/8/19
f 9/14/20 12/10/20 11/8/20
f 24/1/21 23/3/21 21/2/21
f 22/4/22 23/6/22 24/5/22
f 28/7/23 27/9/23 26/8/23
f 27/9/24 28/11/24 25/10/24
f 21/2/25 23/3/25 22/4/25
f 21/2/26 22/4/26 24/12/26
f 31/10/7 10/9/7 29/11/7
f 10/13/8 31/10/8 30/8/8
f 33/9/27 34/8/27 32/7/27
f 36/14/28 38/8/28 39/10/28
f 35/10/29 33/9/29 32/11/29
f 33/13/30 35/10/30 34/8/30
f 37/9/31 38/8/31 36/7/31
f 39/10/32 37/9/32 36/11/32
f 37/13/33 39/10/33 38/8/33
f 26/8/34 25/10/34 28/14/34
f 27/13/35 25/10/35 26/8/35
f 10/9/36 30/8/36 29/7/36
f 32/14/37 34/8/37 35/10/37
f 29/14/38 30/8/38 31/10/38
