{
	"asset":{
		"generator":"Khronos glTF Blender I/O v3.6.28",
		"version":"2.0"
	},
	"extensionsUsed":[
		"KHR_lights_punctual"
	],
	"extensionsRequired":[
		"KHR_lights_punctual"
	],
	"extensions":{
		"KHR_lights_punctual":{
			"lights":[
				{
					"color":[
						1,
						1,
						1
					],
					"intensity":54351.41306588226,
					"type":"point",
					"name":"Light"
				}
			]
		}
	},
	"scene":0,
	"scenes":[
		{
			"name":"Scene",
			"nodes":[
				0,
				1,
				2
			]
		}
	],
	"nodes":[
		{
			"extensions":{
				"KHR_lights_punctual":{
					"light":0
				}
			},
			"name":"Light",
			"rotation":[
				-0.28416627645492554,
				0.7269423007965088,
				0.34203392267227173,
				0.5232754945755005
			],
			"translation":[
				4.076245307922363,
				5.903861999511719,
				-1.0054539442062378
			]
		},
		{
			"camera":0,
			"name":"Camera",
			"rotation":[
				-0.20997299253940582,
				0.3857799470424652,
				0.09062844514846802,
				0.8937962055206299
			],
			"translation":[
				7.358891487121582,
				4.958309173583984,
				6.925790786743164
			]
		},
		{
			"mesh":0,
			"name":"BigMeleeT1",
			"scale":[
				0.5,
				0.5,
				0.5
			]
		}
	],
	"cameras":[
		{
			"name":"Camera",
			"perspective":{
				"aspectRatio":1.7777777777777777,
				"yfov":0.39959648408210363,
				"zfar":100,
				"znear":0.10000000149011612
			},
			"type":"perspective"
		}
	],
	"materials":[
		{
			"doubleSided":true,
			"name":"White",
			"pbrMetallicRoughness":{
				"baseColorFactor":[
					0.800000011920929,
					0.800000011920929,
					0.800000011920929,
					1
				],
				"metallicFactor":0,
				"roughnessFactor":0.5
			}
		},
		{
			"doubleSided":true,
			"name":"Black",
			"pbrMetallicRoughness":{
				"baseColorFactor":[
					0,
					0,
					0,
					1
				],
				"metallicFactor":0,
				"roughnessFactor":0.5
			}
		},
		{
			"doubleSided":true,
			"name":"BrightRed",
			"pbrMetallicRoughness":{
				"baseColorFactor":[
					1,
					0,
					0,
					1
				],
				"metallicFactor":0,
				"roughnessFactor":0.5
			}
		},
		{
			"doubleSided":true,
			"name":"Yellow",
			"pbrMetallicRoughness":{
				"baseColorFactor":[
					1,
					0.9000000953674316,
					0,
					1
				],
				"metallicFactor":0,
				"roughnessFactor":0.5
			}
		}
	],
	"meshes":[
		{
			"name":"Sphere",
			"primitives":[
				{
					"attributes":{
						"POSITION":0,
						"NORMAL":1,
						"TEXCOORD_0":2,
						"TANGENT":3
					},
					"indices":4,
					"material":0
				},
				{
					"attributes":{
						"POSITION":5,
						"NORMAL":6,
						"TEXCOORD_0":7,
						"TANGENT":8
					},
					"indices":9,
					"material":1
				},
				{
					"attributes":{
						"POSITION":10,
						"NORMAL":11,
						"TEXCOORD_0":12,
						"TANGENT":13
					},
					"indices":14,
					"material":2
				},
				{
					"attributes":{
						"POSITION":15,
						"NORMAL":16,
						"TEXCOORD_0":17,
						"TANGENT":18
					},
					"indices":19,
					"material":3
				}
			]
		}
	],
	"accessors":[
		{
			"bufferView":0,
			"componentType":5126,
			"count":4,
			"max":[
				-1.3661952018737793,
				-2.0693914890289307,
				0.954712450504303
			],
			"min":[
				-1.5563639402389526,
				-2.0706570148468018,
				0.624880850315094
			],
			"type":"VEC3"
		},
		{
			"bufferView":1,
			"componentType":5126,
			"count":4,
			"type":"VEC3"
		},
		{
			"bufferView":2,
			"componentType":5126,
			"count":4,
			"type":"VEC2"
		},
		{
			"bufferView":3,
			"componentType":5126,
			"count":4,
			"type":"VEC4"
		},
		{
			"bufferView":4,
			"componentType":5123,
			"count":6,
			"type":"SCALAR"
		},
		{
			"bufferView":5,
			"componentType":5126,
			"count":2308,
			"max":[
				1.799999475479126,
				1.439483404159546,
				1.8673864603042603
			],
			"min":[
				-1.7999982833862305,
				-3.0002646446228027,
				-1.8517948389053345
			],
			"type":"VEC3"
		},
		{
			"bufferView":6,
			"componentType":5126,
			"count":2308,
			"type":"VEC3"
		},
		{
			"bufferView":7,
			"componentType":5126,
			"count":2308,
			"type":"VEC2"
		},
		{
			"bufferView":8,
			"componentType":5126,
			"count":2308,
			"type":"VEC4"
		},
		{
			"bufferView":9,
			"componentType":5123,
			"count":3408,
			"type":"SCALAR"
		},
		{
			"bufferView":10,
			"componentType":5126,
			"count":16,
			"max":[
				0.6273794174194336,
				1.439462661743164,
				1.5999987125396729
			],
			"min":[
				-0.5972070693969727,
				1.1267220973968506,
				1.478205680847168
			],
			"type":"VEC3"
		},
		{
			"bufferView":11,
			"componentType":5126,
			"count":16,
			"type":"VEC3"
		},
		{
			"bufferView":12,
			"componentType":5126,
			"count":16,
			"type":"VEC2"
		},
		{
			"bufferView":13,
			"componentType":5126,
			"count":16,
			"type":"VEC4"
		},
		{
			"bufferView":14,
			"componentType":5123,
			"count":24,
			"type":"SCALAR"
		},
		{
			"bufferView":15,
			"componentType":5126,
			"count":2316,
			"max":[
				2.016303300857544,
				2.96124005317688,
				1.9999984502792358
			],
			"min":[
				-1.9849119186401367,
				-2.0793962478637695,
				-2
			],
			"type":"VEC3"
		},
		{
			"bufferView":16,
			"componentType":5126,
			"count":2316,
			"type":"VEC3"
		},
		{
			"bufferView":17,
			"componentType":5126,
			"count":2316,
			"type":"VEC2"
		},
		{
			"bufferView":18,
			"componentType":5126,
			"count":2316,
			"type":"VEC4"
		},
		{
			"bufferView":19,
			"componentType":5123,
			"count":3738,
			"type":"SCALAR"
		}
	],
	"bufferViews":[
		{
			"buffer":0,
			"byteLength":48,
			"byteOffset":0,
			"target":34962
		},
		{
			"buffer":0,
			"byteLength":48,
			"byteOffset":48,
			"target":34962
		},
		{
			"buffer":0,
			"byteLength":32,
			"byteOffset":96,
			"target":34962
		},
		{
			"buffer":0,
			"byteLength":64,
			"byteOffset":128,
			"target":34962
		},
		{
			"buffer":0,
			"byteLength":12,
			"byteOffset":192,
			"target":34963
		},
		{
			"buffer":0,
			"byteLength":27696,
			"byteOffset":204,
			"target":34962
		},
		{
			"buffer":0,
			"byteLength":27696,
			"byteOffset":27900,
			"target":34962
		},
		{
			"buffer":0,
			"byteLength":18464,
			"byteOffset":55596,
			"target":34962
		},
		{
			"buffer":0,
			"byteLength":36928,
			"byteOffset":74060,
			"target":34962
		},
		{
			"buffer":0,
			"byteLength":6816,
			"byteOffset":110988,
			"target":34963
		},
		{
			"buffer":0,
			"byteLength":192,
			"byteOffset":117804,
			"target":34962
		},
		{
			"buffer":0,
			"byteLength":192,
			"byteOffset":117996,
			"target":34962
		},
		{
			"buffer":0,
			"byteLength":128,
			"byteOffset":118188,
			"target":34962
		},
		{
			"buffer":0,
			"byteLength":256,
			"byteOffset":118316,
			"target":34962
		},
		{
			"buffer":0,
			"byteLength":48,
			"byteOffset":118572,
			"target":34963
		},
		{
			"buffer":0,
			"byteLength":27792,
			"byteOffset":118620,
			"target":34962
		},
		{
			"buffer":0,
			"byteLength":27792,
			"byteOffset":146412,
			"target":34962
		},
		{
			"buffer":0,
			"byteLength":18528,
			"byteOffset":174204,
			"target":34962
		},
		{
			"buffer":0,
			"byteLength":37056,
			"byteOffset":192732,
			"target":34962
		},
		{
			"buffer":0,
			"byteLength":7476,
			"byteOffset":229788,
			"target":34963
		}
	],
	"buffers":[
		{
			"byteLength":237264,
			"uri":"BigMeleeT1-5d2d0ead67d387517180f8bdbe84d7c4.bin"
		}
	]
}
