{
	"asset":{
		"generator":"Khronos glTF Blender I/O v3.6.28",
		"version":"2.0"
	},
	"extensionsUsed":[
		"KHR_lights_punctual"
	],
	"extensionsRequired":[
		"KHR_lights_punctual"
	],
	"extensions":{
		"KHR_lights_punctual":{
			"lights":[
				{
					"color":[
						1,
						1,
						1
					],
					"intensity":54351.41306588226,
					"type":"point",
					"name":"Light"
				}
			]
		}
	},
	"scene":0,
	"scenes":[
		{
			"name":"Scene",
			"nodes":[
				0,
				1,
				2
			]
		}
	],
	"nodes":[
		{
			"extensions":{
				"KHR_lights_punctual":{
					"light":0
				}
			},
			"name":"Light",
			"rotation":[
				-0.28416627645492554,
				0.7269423007965088,
				0.34203392267227173,
				0.5232754945755005
			],
			"translation":[
				4.076245307922363,
				5.903861999511719,
				-1.0054539442062378
			]
		},
		{
			"camera":0,
			"name":"Camera",
			"rotation":[
				-0.20997299253940582,
				0.3857799470424652,
				0.09062844514846802,
				0.8937962055206299
			],
			"translation":[
				7.358891487121582,
				4.958309173583984,
				6.925790786743164
			]
		},
		{
			"mesh":0,
			"name":"Body",
			"scale":[
				0.5,
				0.5,
				0.5
			]
		}
	],
	"cameras":[
		{
			"name":"Camera",
			"perspective":{
				"aspectRatio":1.7777777777777777,
				"yfov":0.39959648408210363,
				"zfar":100,
				"znear":0.10000000149011612
			},
			"type":"perspective"
		}
	],
	"materials":[
		{
			"doubleSided":true,
			"name":"Black",
			"pbrMetallicRoughness":{
				"baseColorFactor":[
					0,
					0,
					0,
					1
				],
				"metallicFactor":0,
				"roughnessFactor":0.5
			}
		},
		{
			"doubleSided":true,
			"name":"BrightRed",
			"pbrMetallicRoughness":{
				"baseColorFactor":[
					1,
					0,
					0,
					1
				],
				"metallicFactor":0,
				"roughnessFactor":0.5
			}
		},
		{
			"doubleSided":true,
			"name":"Yellow",
			"pbrMetallicRoughness":{
				"baseColorFactor":[
					1,
					0.9000000953674316,
					0,
					1
				],
				"metallicFactor":0,
				"roughnessFactor":0.5
			}
		}
	],
	"meshes":[
		{
			"name":"Sphere",
			"primitives":[
				{
					"attributes":{
						"POSITION":0,
						"NORMAL":1,
						"TEXCOORD_0":2,
						"TANGENT":3
					},
					"indices":4,
					"material":0
				},
				{
					"attributes":{
						"POSITION":5,
						"NORMAL":6,
						"TEXCOORD_0":7,
						"TANGENT":8
					},
					"indices":9,
					"material":1
				},
				{
					"attributes":{
						"POSITION":10,
						"NORMAL":11,
						"TEXCOORD_0":12,
						"TANGENT":13
					},
					"indices":14,
					"material":2
				}
			]
		}
	],
	"accessors":[
		{
			"bufferView":0,
			"componentType":5126,
			"count":2372,
			"max":[
				0.875755786895752,
				0.984887421131134,
				0.8547412753105164
			],
			"min":[
				-0.8538936376571655,
				-2.0037851333618164,
				-0.9203180074691772
			],
			"type":"VEC3"
		},
		{
			"bufferView":1,
			"componentType":5126,
			"count":2372,
			"type":"VEC3"
		},
		{
			"bufferView":2,
			"componentType":5126,
			"count":2372,
			"type":"VEC2"
		},
		{
			"bufferView":3,
			"componentType":5126,
			"count":2372,
			"type":"VEC4"
		},
		{
			"bufferView":4,
			"componentType":5123,
			"count":3528,
			"type":"SCALAR"
		},
		{
			"bufferView":5,
			"componentType":5126,
			"count":16,
			"max":[
				0.3167729377746582,
				0.9848734736442566,
				0.7999993562698364
			],
			"min":[
				-0.2955203056335449,
				0.77394700050354,
				0.739102840423584
			],
			"type":"VEC3"
		},
		{
			"bufferView":6,
			"componentType":5126,
			"count":16,
			"type":"VEC3"
		},
		{
			"bufferView":7,
			"componentType":5126,
			"count":16,
			"type":"VEC2"
		},
		{
			"bufferView":8,
			"componentType":5126,
			"count":16,
			"type":"VEC4"
		},
		{
			"bufferView":9,
			"componentType":5123,
			"count":24,
			"type":"SCALAR"
		},
		{
			"bufferView":10,
			"componentType":5126,
			"count":2252,
			"max":[
				1.0112348794937134,
				2.011228561401367,
				0.9999992847442627
			],
			"min":[
				-0.989372730255127,
				-1.3884034156799316,
				-1
			],
			"type":"VEC3"
		},
		{
			"bufferView":11,
			"componentType":5126,
			"count":2252,
			"type":"VEC3"
		},
		{
			"bufferView":12,
			"componentType":5126,
			"count":2252,
			"type":"VEC2"
		},
		{
			"bufferView":13,
			"componentType":5126,
			"count":2252,
			"type":"VEC4"
		},
		{
			"bufferView":14,
			"componentType":5123,
			"count":3618,
			"type":"SCALAR"
		}
	],
	"bufferViews":[
		{
			"buffer":0,
			"byteLength":28464,
			"byteOffset":0,
			"target":34962
		},
		{
			"buffer":0,
			"byteLength":28464,
			"byteOffset":28464,
			"target":34962
		},
		{
			"buffer":0,
			"byteLength":18976,
			"byteOffset":56928,
			"target":34962
		},
		{
			"buffer":0,
			"byteLength":37952,
			"byteOffset":75904,
			"target":34962
		},
		{
			"buffer":0,
			"byteLength":7056,
			"byteOffset":113856,
			"target":34963
		},
		{
			"buffer":0,
			"byteLength":192,
			"byteOffset":120912,
			"target":34962
		},
		{
			"buffer":0,
			"byteLength":192,
			"byteOffset":121104,
			"target":34962
		},
		{
			"buffer":0,
			"byteLength":128,
			"byteOffset":121296,
			"target":34962
		},
		{
			"buffer":0,
			"byteLength":256,
			"byteOffset":121424,
			"target":34962
		},
		{
			"buffer":0,
			"byteLength":48,
			"byteOffset":121680,
			"target":34963
		},
		{
			"buffer":0,
			"byteLength":27024,
			"byteOffset":121728,
			"target":34962
		},
		{
			"buffer":0,
			"byteLength":27024,
			"byteOffset":148752,
			"target":34962
		},
		{
			"buffer":0,
			"byteLength":18016,
			"byteOffset":175776,
			"target":34962
		},
		{
			"buffer":0,
			"byteLength":36032,
			"byteOffset":193792,
			"target":34962
		},
		{
			"buffer":0,
			"byteLength":7236,
			"byteOffset":229824,
			"target":34963
		}
	],
	"buffers":[
		{
			"byteLength":237060,
			"uri":"MeleeT3-341cedb73e91e16ce25583f530d0e526.bin"
		}
	]
}
