{
	"asset":{
		"generator":"Khronos glTF Blender I/O v3.6.28",
		"version":"2.0"
	},
	"extensionsUsed":[
		"KHR_lights_punctual"
	],
	"extensionsRequired":[
		"KHR_lights_punctual"
	],
	"extensions":{
		"KHR_lights_punctual":{
			"lights":[
				{
					"color":[
						1,
						1,
						1
					],
					"intensity":54351.41306588226,
					"type":"point",
					"name":"Light"
				}
			]
		}
	},
	"scene":0,
	"scenes":[
		{
			"name":"Scene",
			"nodes":[
				0,
				1,
				2
			]
		}
	],
	"nodes":[
		{
			"extensions":{
				"KHR_lights_punctual":{
					"light":0
				}
			},
			"name":"Light",
			"rotation":[
				-0.28416627645492554,
				0.7269423007965088,
				0.34203392267227173,
				0.5232754945755005
			],
			"translation":[
				4.076245307922363,
				5.903861999511719,
				-1.0054539442062378
			]
		},
		{
			"camera":0,
			"name":"Camera",
			"rotation":[
				-0.20997299253940582,
				0.3857799470424652,
				0.09062844514846802,
				0.8937962055206299
			],
			"translation":[
				7.358891487121582,
				4.958309173583984,
				6.925790786743164
			]
		},
		{
			"mesh":0,
			"name":"StationaryGunner",
			"scale":[
				0.5,
				0.5,
				0.5
			]
		}
	],
	"cameras":[
		{
			"name":"Camera",
			"perspective":{
				"aspectRatio":1.7777777777777777,
				"yfov":0.39959648408210363,
				"zfar":100,
				"znear":0.10000000149011612
			},
			"type":"perspective"
		}
	],
	"materials":[
		{
			"doubleSided":true,
			"name":"Black",
			"pbrMetallicRoughness":{
				"baseColorFactor":[
					0,
					0,
					0,
					1
				],
				"metallicFactor":0,
				"roughnessFactor":0.5
			}
		},
		{
			"doubleSided":true,
			"name":"BrightRed",
			"pbrMetallicRoughness":{
				"baseColorFactor":[
					1,
					0,
					0,
					1
				],
				"metallicFactor":0,
				"roughnessFactor":0.5
			}
		},
		{
			"doubleSided":true,
			"name":"Purple",
			"pbrMetallicRoughness":{
				"baseColorFactor":[
					0.2047998607158661,
					0.0559999980032444,
					0.8000000715255737,
					1
				],
				"metallicFactor":0,
				"roughnessFactor":0.5
			}
		},
		{
			"doubleSided":true,
			"name":"BlueBlack",
			"pbrMetallicRoughness":{
				"baseColorFactor":[
					0.05000000074505806,
					0.05500001832842827,
					0.10000000149011612,
					1
				],
				"metallicFactor":0,
				"roughnessFactor":0.5
			}
		}
	],
	"meshes":[
		{
			"name":"Sphere",
			"primitives":[
				{
					"attributes":{
						"POSITION":0,
						"NORMAL":1,
						"TEXCOORD_0":2,
						"TANGENT":3
					},
					"indices":4,
					"material":0
				},
				{
					"attributes":{
						"POSITION":5,
						"NORMAL":6,
						"TEXCOORD_0":7,
						"TANGENT":8
					},
					"indices":9,
					"material":1
				},
				{
					"attributes":{
						"POSITION":10,
						"NORMAL":11,
						"TEXCOORD_0":12,
						"TANGENT":13
					},
					"indices":14,
					"material":2
				},
				{
					"attributes":{
						"POSITION":15,
						"NORMAL":16,
						"TEXCOORD_0":17,
						"TANGENT":18
					},
					"indices":19,
					"material":3
				}
			]
		}
	],
	"accessors":[
		{
			"bufferView":0,
			"componentType":5126,
			"count":306,
			"max":[
				0.8106260299682617,
				0.984887421131134,
				0.7391031980514526
			],
			"min":[
				-0.7893729209899902,
				0.2990959882736206,
				-0.8000000715255737
			],
			"type":"VEC3"
		},
		{
			"bufferView":1,
			"componentType":5126,
			"count":306,
			"type":"VEC3"
		},
		{
			"bufferView":2,
			"componentType":5126,
			"count":306,
			"type":"VEC2"
		},
		{
			"bufferView":3,
			"componentType":5126,
			"count":306,
			"type":"VEC4"
		},
		{
			"bufferView":4,
			"componentType":5123,
			"count":504,
			"type":"SCALAR"
		},
		{
			"bufferView":5,
			"componentType":5126,
			"count":42,
			"max":[
				0.3167729377746582,
				0.9848734736442566,
				0.7999993562698364
			],
			"min":[
				-0.2955203056335449,
				0.29910990595817566,
				0.7368614077568054
			],
			"type":"VEC3"
		},
		{
			"bufferView":6,
			"componentType":5126,
			"count":42,
			"type":"VEC3"
		},
		{
			"bufferView":7,
			"componentType":5126,
			"count":42,
			"type":"VEC2"
		},
		{
			"bufferView":8,
			"componentType":5126,
			"count":42,
			"type":"VEC4"
		},
		{
			"bufferView":9,
			"componentType":5123,
			"count":72,
			"type":"SCALAR"
		},
		{
			"bufferView":10,
			"componentType":5126,
			"count":2068,
			"max":[
				1.0112348794937134,
				2.011228561401367,
				0.9999992847442627
			],
			"min":[
				-0.989372730255127,
				-1.3884034156799316,
				-1.000000238418579
			],
			"type":"VEC3"
		},
		{
			"bufferView":11,
			"componentType":5126,
			"count":2068,
			"type":"VEC3"
		},
		{
			"bufferView":12,
			"componentType":5126,
			"count":2068,
			"type":"VEC2"
		},
		{
			"bufferView":13,
			"componentType":5126,
			"count":2068,
			"type":"VEC4"
		},
		{
			"bufferView":14,
			"componentType":5123,
			"count":3168,
			"type":"SCALAR"
		},
		{
			"bufferView":15,
			"componentType":5126,
			"count":1984,
			"max":[
				0.8358132839202881,
				-0.3321582078933716,
				0.8358129858970642
			],
			"min":[
				-0.8358126878738403,
				-2.0037851333618164,
				-0.8358135223388672
			],
			"type":"VEC3"
		},
		{
			"bufferView":16,
			"componentType":5126,
			"count":1984,
			"type":"VEC3"
		},
		{
			"bufferView":17,
			"componentType":5126,
			"count":1984,
			"type":"VEC2"
		},
		{
			"bufferView":18,
			"componentType":5126,
			"count":1984,
			"type":"VEC4"
		},
		{
			"bufferView":19,
			"componentType":5123,
			"count":2880,
			"type":"SCALAR"
		}
	],
	"bufferViews":[
		{
			"buffer":0,
			"byteLength":3672,
			"byteOffset":0,
			"target":34962
		},
		{
			"buffer":0,
			"byteLength":3672,
			"byteOffset":3672,
			"target":34962
		},
		{
			"buffer":0,
			"byteLength":2448,
			"byteOffset":7344,
			"target":34962
		},
		{
			"buffer":0,
			"byteLength":4896,
			"byteOffset":9792,
			"target":34962
		},
		{
			"buffer":0,
			"byteLength":1008,
			"byteOffset":14688,
			"target":34963
		},
		{
			"buffer":0,
			"byteLength":504,
			"byteOffset":15696,
			"target":34962
		},
		{
			"buffer":0,
			"byteLength":504,
			"byteOffset":16200,
			"target":34962
		},
		{
			"buffer":0,
			"byteLength":336,
			"byteOffset":16704,
			"target":34962
		},
		{
			"buffer":0,
			"byteLength":672,
			"byteOffset":17040,
			"target":34962
		},
		{
			"buffer":0,
			"byteLength":144,
			"byteOffset":17712,
			"target":34963
		},
		{
			"buffer":0,
			"byteLength":24816,
			"byteOffset":17856,
			"target":34962
		},
		{
			"buffer":0,
			"byteLength":24816,
			"byteOffset":42672,
			"target":34962
		},
		{
			"buffer":0,
			"byteLength":16544,
			"byteOffset":67488,
			"target":34962
		},
		{
			"buffer":0,
			"byteLength":33088,
			"byteOffset":84032,
			"target":34962
		},
		{
			"buffer":0,
			"byteLength":6336,
			"byteOffset":117120,
			"target":34963
		},
		{
			"buffer":0,
			"byteLength":23808,
			"byteOffset":123456,
			"target":34962
		},
		{
			"buffer":0,
			"byteLength":23808,
			"byteOffset":147264,
			"target":34962
		},
		{
			"buffer":0,
			"byteLength":15872,
			"byteOffset":171072,
			"target":34962
		},
		{
			"buffer":0,
			"byteLength":31744,
			"byteOffset":186944,
			"target":34962
		},
		{
			"buffer":0,
			"byteLength":5760,
			"byteOffset":218688,
			"target":34963
		}
	],
	"buffers":[
		{
			"byteLength":224448,
			"uri":"StationaryGunner-efdb20522770ab4a2486b84d16301fb3.bin"
		}
	]
}
